<svg width="48" height="48" viewBox="0 0 48 48" fill="none" xmlns="http://www.w3.org/2000/svg">
<rect width="48" height="48" rx="24" fill="#C82334"/>
<path d="M13.5984 24.2022H14.2166V28H3.83904V27.448L10.993 13.7584H6.70944C6.37088 13.7584 6.12064 13.7731 5.95872 13.8026C5.81152 13.8173 5.71584 13.8688 5.67168 13.9571C5.62752 14.0307 5.576 14.1558 5.51712 14.3325L4.81056 16.7834H4.19232V12.9856H13.9958V13.5376L6.84192 27.2272H11.6995C12.0528 27.2272 12.303 27.2198 12.4502 27.2051C12.5974 27.1757 12.6931 27.1242 12.7373 27.0506C12.7962 26.9622 12.8477 26.8298 12.8918 26.6531L13.5984 24.2022ZM23.8413 19.7862V21.1773C23.8413 23.4442 23.3334 25.1885 22.3178 26.4102C21.3168 27.6173 19.8301 28.2208 17.8576 28.2208C15.8851 28.2208 14.391 27.6173 13.3754 26.4102C12.3744 25.1885 11.8739 23.4442 11.8739 21.1773V19.7862C11.8739 17.5194 12.3744 15.7824 13.3754 14.5754C14.391 13.3683 15.8851 12.7648 17.8576 12.7648C19.8301 12.7648 21.3168 13.3683 22.3178 14.5754C23.3334 15.7824 23.8413 17.5194 23.8413 19.7862ZM21.015 18.6822C21.015 17.3869 20.9046 16.3712 20.6838 15.6352C20.463 14.8845 20.1171 14.3472 19.6461 14.0234C19.1898 13.6995 18.5936 13.5376 17.8576 13.5376C17.1363 13.5376 16.5402 13.6995 16.0691 14.0234C15.5981 14.3472 15.2522 14.8845 15.0314 15.6352C14.8106 16.3712 14.7002 17.3869 14.7002 18.6822V22.2813C14.7002 23.5619 14.8106 24.5776 15.0314 25.3283C15.2522 26.079 15.5981 26.6237 16.0691 26.9622C16.5402 27.2861 17.1363 27.448 17.8576 27.448C18.5936 27.448 19.1898 27.2861 19.6461 26.9622C20.1171 26.6237 20.463 26.079 20.6838 25.3283C20.9046 24.5776 21.015 23.5619 21.015 22.2813V18.6822ZM34.0826 19.7862V21.1773C34.0826 23.4442 33.5748 25.1885 32.5591 26.4102C31.5581 27.6173 30.0714 28.2208 28.0989 28.2208C26.1264 28.2208 24.6324 27.6173 23.6167 26.4102C22.6157 25.1885 22.1152 23.4442 22.1152 21.1773V19.7862C22.1152 17.5194 22.6157 15.7824 23.6167 14.5754C24.6324 13.3683 26.1264 12.7648 28.0989 12.7648C30.0714 12.7648 31.5581 13.3683 32.5591 14.5754C33.5748 15.7824 34.0826 17.5194 34.0826 19.7862ZM31.2564 18.6822C31.2564 17.3869 31.146 16.3712 30.9252 15.6352C30.7044 14.8845 30.3584 14.3472 29.8874 14.0234C29.4311 13.6995 28.8349 13.5376 28.0989 13.5376C27.3776 13.5376 26.7815 13.6995 26.3104 14.0234C25.8394 14.3472 25.4935 14.8845 25.2727 15.6352C25.0519 16.3712 24.9415 17.3869 24.9415 18.6822V22.2813C24.9415 23.5619 25.0519 24.5776 25.2727 25.3283C25.4935 26.079 25.8394 26.6237 26.3104 26.9622C26.7815 27.2861 27.3776 27.448 28.0989 27.448C28.8349 27.448 29.4311 27.2861 29.8874 26.9622C30.3584 26.6237 30.7044 26.079 30.9252 25.3283C31.146 24.5776 31.2564 23.5619 31.2564 22.2813V18.6822ZM31.8487 13.6038V12.9856H37.8987V13.6038L36.6843 13.7584C36.4487 13.7878 36.3089 13.8541 36.2647 13.9571C36.2206 14.0454 36.1985 14.3398 36.1985 14.8403V20.7798L41.4315 14.8403C41.8583 14.3546 42.0791 14.0602 42.0939 13.9571C42.1233 13.8541 42.0203 13.7878 41.7847 13.7584L40.5703 13.6038V12.9856H45.0526V13.6038L43.8382 13.7584C43.691 13.7731 43.5732 13.8026 43.4849 13.8467C43.3966 13.8909 43.2862 13.9866 43.1537 14.1338C43.0212 14.281 42.8078 14.5165 42.5134 14.8403L39.4222 18.329L43.242 26.1453C43.4039 26.4544 43.5291 26.6826 43.6174 26.8298C43.7057 26.977 43.8087 27.0726 43.9265 27.1168C44.0443 27.161 44.2062 27.1978 44.4123 27.2272L45.4059 27.3818V28H41.2107L37.6337 20.3603L36.1985 21.9942V26.1453C36.1985 26.6458 36.2206 26.9475 36.2647 27.0506C36.3089 27.1389 36.4487 27.1978 36.6843 27.2272L37.8987 27.3818V28H31.8487V27.3818L33.0631 27.2272C33.2987 27.1978 33.4385 27.1389 33.4827 27.0506C33.5268 26.9475 33.5489 26.6458 33.5489 26.1453V14.8403C33.5489 14.3398 33.5268 14.0454 33.4827 13.9571C33.4385 13.8541 33.2987 13.7878 33.0631 13.7584L31.8487 13.6038Z" fill="white"/>
<path d="M18.6623 31.1184C18.652 31.0144 18.6077 30.9336 18.5295 30.876C18.4513 30.8184 18.3451 30.7896 18.211 30.7896C18.1198 30.7896 18.0429 30.8025 17.9801 30.8283C17.9174 30.8532 17.8692 30.888 17.8357 30.9327C17.803 30.9774 17.7867 31.0282 17.7867 31.0849C17.785 31.1322 17.7948 31.1735 17.8163 31.2087C17.8387 31.244 17.8692 31.2745 17.9079 31.3003C17.9466 31.3252 17.9913 31.3471 18.042 31.366C18.0927 31.3841 18.1469 31.3996 18.2045 31.4125L18.4418 31.4692C18.557 31.495 18.6628 31.5294 18.759 31.5724C18.8553 31.6154 18.9387 31.6682 19.0092 31.731C19.0797 31.7938 19.1343 31.8677 19.173 31.9528C19.2126 32.0379 19.2328 32.1355 19.2336 32.2456C19.2328 32.4072 19.1915 32.5473 19.1098 32.666C19.029 32.7838 18.9121 32.8753 18.759 32.9407C18.6069 33.0052 18.4233 33.0374 18.2084 33.0374C17.9952 33.0374 17.8095 33.0047 17.6513 32.9394C17.4939 32.874 17.371 32.7773 17.2824 32.6492C17.1947 32.5203 17.1487 32.3608 17.1444 32.1708H17.6848C17.6908 32.2593 17.7162 32.3333 17.7609 32.3926C17.8064 32.4511 17.8671 32.4953 17.9427 32.5254C18.0192 32.5547 18.1056 32.5693 18.2019 32.5693C18.2965 32.5693 18.3786 32.5555 18.4482 32.528C18.5187 32.5005 18.5733 32.4622 18.612 32.4132C18.6507 32.3642 18.6701 32.3079 18.6701 32.2443C18.6701 32.185 18.6524 32.1351 18.6172 32.0947C18.5828 32.0543 18.5321 32.0199 18.465 31.9915C18.3988 31.9631 18.3176 31.9374 18.2213 31.9141L17.9337 31.8419C17.711 31.7878 17.5352 31.7031 17.4062 31.5879C17.2773 31.4727 17.2132 31.3175 17.2141 31.1223C17.2132 30.9624 17.2558 30.8227 17.3418 30.7032C17.4286 30.5837 17.5477 30.4904 17.699 30.4233C17.8503 30.3563 18.0222 30.3227 18.2148 30.3227C18.4108 30.3227 18.5819 30.3563 18.7281 30.4233C18.8751 30.4904 18.9895 30.5837 19.0711 30.7032C19.1528 30.8227 19.1949 30.9611 19.1975 31.1184H18.6623ZM19.5086 30.8192V30.3589H21.6778V30.8192H20.8692V33H20.3172V30.8192H19.5086ZM23.6664 30.3589H24.2248V32.0741C24.2248 32.2666 24.1788 32.4351 24.0868 32.5796C23.9957 32.724 23.868 32.8366 23.7038 32.9175C23.5396 32.9974 23.3483 33.0374 23.1299 33.0374C22.9107 33.0374 22.7189 32.9974 22.5547 32.9175C22.3905 32.8366 22.2628 32.724 22.1717 32.5796C22.0806 32.4351 22.035 32.2666 22.035 32.0741V30.3589H22.5934V32.0263C22.5934 32.1269 22.6153 32.2163 22.6592 32.2946C22.7039 32.3728 22.7667 32.4343 22.8475 32.479C22.9283 32.5237 23.0224 32.5461 23.1299 32.5461C23.2382 32.5461 23.3324 32.5237 23.4123 32.479C23.4931 32.4343 23.5555 32.3728 23.5993 32.2946C23.644 32.2163 23.6664 32.1269 23.6664 32.0263V30.3589ZM25.6205 33H24.6842V30.3589H25.6282C25.8939 30.3589 26.1226 30.4117 26.3143 30.5175C26.506 30.6224 26.6535 30.7733 26.7566 30.9701C26.8607 31.167 26.9127 31.4026 26.9127 31.6768C26.9127 31.952 26.8607 32.1884 26.7566 32.3861C26.6535 32.5839 26.5052 32.7356 26.3117 32.8414C26.1191 32.9471 25.8887 33 25.6205 33ZM25.2426 32.5215H25.5973C25.7623 32.5215 25.9012 32.4923 26.0138 32.4339C26.1273 32.3745 26.2124 32.283 26.2692 32.1592C26.3268 32.0345 26.3556 31.8737 26.3556 31.6768C26.3556 31.4817 26.3268 31.3222 26.2692 31.1984C26.2124 31.0746 26.1277 30.9835 26.0151 30.925C25.9025 30.8665 25.7636 30.8373 25.5986 30.8373H25.2426V32.5215ZM27.8847 30.3589V33H27.3263V30.3589H27.8847ZM30.7712 31.6794C30.7712 31.9674 30.7166 32.2125 30.6075 32.4145C30.4991 32.6166 30.3513 32.7709 30.1638 32.8775C29.9773 32.9832 29.7675 33.0361 29.5345 33.0361C29.2998 33.0361 29.0891 32.9828 28.9026 32.8762C28.716 32.7696 28.5686 32.6153 28.4602 32.4132C28.3519 32.2112 28.2977 31.9666 28.2977 31.6794C28.2977 31.3914 28.3519 31.1464 28.4602 30.9443C28.5686 30.7423 28.716 30.5884 28.9026 30.4827C29.0891 30.376 29.2998 30.3227 29.5345 30.3227C29.7675 30.3227 29.9773 30.376 30.1638 30.4827C30.3513 30.5884 30.4991 30.7423 30.6075 30.9443C30.7166 31.1464 30.7712 31.3914 30.7712 31.6794ZM30.2051 31.6794C30.2051 31.4929 30.1772 31.3355 30.1213 31.2074C30.0662 31.0793 29.9884 30.9822 29.8879 30.916C29.7873 30.8498 29.6695 30.8167 29.5345 30.8167C29.3995 30.8167 29.2817 30.8498 29.1811 30.916C29.0805 30.9822 29.0023 31.0793 28.9464 31.2074C28.8914 31.3355 28.8639 31.4929 28.8639 31.6794C28.8639 31.866 28.8914 32.0233 28.9464 32.1514C29.0023 32.2795 29.0805 32.3767 29.1811 32.4429C29.2817 32.5091 29.3995 32.5422 29.5345 32.5422C29.6695 32.5422 29.7873 32.5091 29.8879 32.4429C29.9884 32.3767 30.0662 32.2795 30.1213 32.1514C30.1772 32.0233 30.2051 31.866 30.2051 31.6794Z" fill="white"/>
</svg>
